<svg id="Layer_1" data-name="Layer 1" xmlns="http://www.w3.org/2000/svg" viewBox="0 0 200 200"><defs><style>.cls-1{fill:#353b94;}.cls-2{fill:#fff;}</style></defs><title>Icon astraFMS</title><circle class="cls-1" cx="100" cy="100" r="77.45"/><path class="cls-2" d="M119.64,119.93a100.9,100.9,0,0,1-10.34,10.84,14,14,0,0,1-18.54.06,101.24,101.24,0,0,1-10.39-10.9c-14.16,2.29-23.87,7-23.87,12.4C56.5,140,76,146.22,100,146.22s43.5-6.22,43.5-13.89C143.5,126.91,133.79,122.23,119.64,119.93Z"/><path class="cls-2" d="M97.36,123.31a4,4,0,0,0,5.28,0c1-.84,23.41-20.84,23.41-41.59a26.05,26.05,0,0,0-52.1,0C74,102.47,96.41,122.47,97.36,123.31Zm-6-44.95a9.13,9.13,0,0,1,9.08-9.18h0a9.18,9.18,0,1,1-9.09,9.27Z"/></svg>